<svg width="18" height="18" viewBox="0 0 18 18" fill="none" xmlns="http://www.w3.org/2000/svg">
<g id="ph:clock-clockwise-light">
<path id="Vector" d="M9.42175 5.62516V8.7611L12.0296 10.3256C12.1257 10.3832 12.1949 10.4766 12.2221 10.5852C12.2492 10.6939 12.2321 10.8089 12.1745 10.9049C12.1169 11.001 12.0235 11.0702 11.9148 11.0973C11.8061 11.1245 11.6912 11.1074 11.5951 11.0498L8.78261 9.36227C8.72013 9.32473 8.66844 9.27164 8.63258 9.20818C8.59672 9.14472 8.57792 9.07305 8.578 9.00016V5.62516C8.578 5.51327 8.62245 5.40596 8.70157 5.32685C8.78068 5.24773 8.88799 5.20328 8.99988 5.20328C9.11177 5.20328 9.21907 5.24773 9.29819 5.32685C9.37731 5.40596 9.42175 5.51327 9.42175 5.62516ZM15.7499 4.07828C15.638 4.07828 15.5307 4.12273 15.4516 4.20185C15.3725 4.28096 15.328 4.38827 15.328 4.50016V6.14266C14.8021 5.5218 14.2775 4.93821 13.6736 4.32649C12.755 3.4079 11.5861 2.78038 10.3129 2.52233C9.03968 2.26429 7.71868 2.38716 6.51493 2.8756C5.31118 3.36404 4.27806 4.19639 3.54466 5.26864C2.81126 6.34089 2.4101 7.60549 2.39132 8.90442C2.37253 10.2034 2.73695 11.479 3.43903 12.572C4.14112 13.6651 5.14974 14.5269 6.33886 15.05C7.52798 15.573 8.84488 15.7341 10.125 15.5129C11.4051 15.2918 12.5917 14.6984 13.5364 13.8067C13.615 13.7293 13.6601 13.6241 13.6621 13.5138C13.6641 13.4034 13.6227 13.2967 13.5469 13.2165C13.4711 13.1363 13.3669 13.089 13.2567 13.0847C13.1464 13.0804 13.0388 13.1195 12.9571 13.1936C12.1327 13.971 11.0975 14.4884 9.98087 14.6809C8.86421 14.8734 7.71557 14.7326 6.67846 14.2761C5.64135 13.8196 4.76174 13.0676 4.14953 12.1141C3.53733 11.1606 3.21966 10.0478 3.23623 8.9148C3.2528 7.78179 3.60286 6.67877 4.24268 5.74355C4.8825 4.80834 5.78371 4.08239 6.83373 3.6564C7.88375 3.23041 9.03601 3.12328 10.1466 3.34837C11.2571 3.57346 12.2767 4.12081 13.078 4.92203C13.7277 5.58016 14.286 6.20875 14.8576 6.89078H12.9374C12.8255 6.89078 12.7182 6.93523 12.6391 7.01435C12.56 7.09347 12.5155 7.20077 12.5155 7.31266C12.5155 7.42455 12.56 7.53185 12.6391 7.61097C12.7182 7.69009 12.8255 7.73453 12.9374 7.73453H15.7499C15.8618 7.73453 15.9691 7.69009 16.0482 7.61097C16.1273 7.53185 16.1718 7.42455 16.1718 7.31266V4.50016C16.1718 4.38827 16.1273 4.28096 16.0482 4.20185C15.9691 4.12273 15.8618 4.07828 15.7499 4.07828Z" fill="black"/>
</g>
</svg>
