<svg width="25" height="24" viewBox="0 0 25 24" fill="none" xmlns="http://www.w3.org/2000/svg">
<g id="octicon:filter-16" clip-path="url(#clip0_3_113)">
<path id="Vector" d="M1.13281 4.5H22.8828C23.1812 4.5 23.4673 4.61853 23.6783 4.8295C23.8893 5.04048 24.0078 5.32663 24.0078 5.625C24.0078 5.92337 23.8893 6.20952 23.6783 6.4205C23.4673 6.63147 23.1812 6.75 22.8828 6.75H1.13281C0.834444 6.75 0.548296 6.63147 0.337317 6.4205C0.126339 6.20952 0.0078125 5.92337 0.0078125 5.625C0.0078125 5.32663 0.126339 5.04048 0.337317 4.8295C0.548296 4.61853 0.834444 4.5 1.13281 4.5ZM4.50781 11.625C4.50781 11.3266 4.62634 11.0405 4.83732 10.8295C5.0483 10.6185 5.33444 10.5 5.63281 10.5H18.3828C18.6812 10.5 18.9673 10.6185 19.1783 10.8295C19.3893 11.0405 19.5078 11.3266 19.5078 11.625C19.5078 11.9234 19.3893 12.2095 19.1783 12.4205C18.9673 12.6315 18.6812 12.75 18.3828 12.75H5.63281C5.33444 12.75 5.0483 12.6315 4.83732 12.4205C4.62634 12.2095 4.50781 11.9234 4.50781 11.625ZM9.00781 17.625C9.00781 17.3266 9.12634 17.0405 9.33732 16.8295C9.54829 16.6185 9.83444 16.5 10.1328 16.5H13.8828C14.1812 16.5 14.4673 16.6185 14.6783 16.8295C14.8893 17.0405 15.0078 17.3266 15.0078 17.625C15.0078 17.9234 14.8893 18.2095 14.6783 18.4205C14.4673 18.6315 14.1812 18.75 13.8828 18.75H10.1328C9.83444 18.75 9.54829 18.6315 9.33732 18.4205C9.12634 18.2095 9.00781 17.9234 9.00781 17.625Z" fill="#909090"/>
</g>
<defs>
<clipPath id="clip0_3_113">
<rect width="24" height="24" fill="white" transform="translate(0.0078125)"/>
</clipPath>
</defs>
</svg>
