<svg width="30" height="29" viewBox="0 0 30 29" fill="none" xmlns="http://www.w3.org/2000/svg">
<g id="fe:search">
<g id="feSearch0">
<g id="feSearch1">
<path id="feSearch2" fill-rule="evenodd" clip-rule="evenodd" d="M20.1837 17.8789L26.6397 24.3349C26.8667 24.562 26.9941 24.8699 26.994 25.1909C26.9939 25.5119 26.8662 25.8198 26.6391 26.0467C26.4121 26.2736 26.1041 26.401 25.7831 26.4009C25.4621 26.4008 25.1543 26.2732 24.9273 26.0461L18.4713 19.5901C16.5414 21.0849 14.1145 21.7883 11.6843 21.5573C9.25412 21.3263 7.00323 20.1781 5.38953 18.3464C3.77583 16.5147 2.92054 14.1371 2.99765 11.6971C3.07477 9.25722 4.07849 6.93832 5.80464 5.21217C7.53078 3.48603 9.84969 2.4823 12.2896 2.40519C14.7295 2.32807 17.1072 3.18336 18.9389 4.79706C20.7706 6.41076 21.9187 8.66166 22.1498 11.0918C22.3808 13.522 21.6774 15.9489 20.1825 17.8789H20.1837ZM12.5937 19.2001C14.5033 19.2001 16.3347 18.4415 17.6849 17.0913C19.0352 15.741 19.7937 13.9096 19.7937 12.0001C19.7937 10.0905 19.0352 8.25918 17.6849 6.90892C16.3347 5.55865 14.5033 4.80009 12.5937 4.80009C10.6842 4.80009 8.85284 5.55865 7.50258 6.90892C6.15232 8.25918 5.39375 10.0905 5.39375 12.0001C5.39375 13.9096 6.15232 15.741 7.50258 17.0913C8.85284 18.4415 10.6842 19.2001 12.5937 19.2001Z" fill="#909090"/>
</g>
</g>
</g>
</svg>
